<mxfile host="app.diagrams.net" modified="2023-09-14T07:29:16.220Z" agent="Mozilla/5.0 (X11; Linux x86_64) AppleWebKit/537.36 (KHTML, like Gecko) Chrome/114.0.0.0 Safari/537.36 Edg/114.0.1823.67" etag="BUifEUqwHwlzKwi02h7V" version="21.7.5" type="github">
  <diagram id="C5RBs43oDa-KdzZeNtuy" name="Page-1">
    <mxGraphModel dx="2173" dy="775" grid="1" gridSize="10" guides="1" tooltips="1" connect="1" arrows="1" fold="1" page="1" pageScale="1" pageWidth="827" pageHeight="1169" math="0" shadow="0">
      <root>
        <mxCell id="WIyWlLk6GJQsqaUBKTNV-0" />
        <mxCell id="WIyWlLk6GJQsqaUBKTNV-1" parent="WIyWlLk6GJQsqaUBKTNV-0" />
        <mxCell id="Ks6QfVX8gnesX7YzdXyY-0" style="edgeStyle=orthogonalEdgeStyle;rounded=0;orthogonalLoop=1;jettySize=auto;html=1;exitX=0.5;exitY=1;exitDx=0;exitDy=0;entryX=0.5;entryY=0;entryDx=0;entryDy=0;" edge="1" parent="WIyWlLk6GJQsqaUBKTNV-1" source="Ks6QfVX8gnesX7YzdXyY-1" target="Ks6QfVX8gnesX7YzdXyY-15">
          <mxGeometry relative="1" as="geometry" />
        </mxCell>
        <mxCell id="Ks6QfVX8gnesX7YzdXyY-1" value="&lt;span style=&quot;font-size: 18px;&quot;&gt;cnmc&lt;/span&gt;" style="rounded=1;whiteSpace=wrap;html=1;fontSize=12;glass=0;strokeWidth=1;shadow=0;fillColor=#d5e8d4;strokeColor=#82b366;" vertex="1" parent="WIyWlLk6GJQsqaUBKTNV-1">
          <mxGeometry x="-463.24" y="30" width="106" height="40" as="geometry" />
        </mxCell>
        <mxCell id="Ks6QfVX8gnesX7YzdXyY-42" style="edgeStyle=orthogonalEdgeStyle;rounded=0;orthogonalLoop=1;jettySize=auto;html=1;exitX=0.5;exitY=1;exitDx=0;exitDy=0;entryX=0.5;entryY=0;entryDx=0;entryDy=0;" edge="1" parent="WIyWlLk6GJQsqaUBKTNV-1" source="Ks6QfVX8gnesX7YzdXyY-15" target="Ks6QfVX8gnesX7YzdXyY-41">
          <mxGeometry relative="1" as="geometry" />
        </mxCell>
        <mxCell id="Ks6QfVX8gnesX7YzdXyY-15" value="&lt;span style=&quot;font-size: 18px;&quot;&gt;CNAsmEntry()&lt;/span&gt;" style="rounded=1;whiteSpace=wrap;html=1;fontSize=12;glass=0;strokeWidth=1;shadow=0;" vertex="1" parent="WIyWlLk6GJQsqaUBKTNV-1">
          <mxGeometry x="-522" y="130" width="223.5" height="50" as="geometry" />
        </mxCell>
        <mxCell id="Ks6QfVX8gnesX7YzdXyY-40" style="edgeStyle=orthogonalEdgeStyle;rounded=0;orthogonalLoop=1;jettySize=auto;html=1;exitX=0;exitY=0.5;exitDx=0;exitDy=0;" edge="1" parent="WIyWlLk6GJQsqaUBKTNV-1" source="Ks6QfVX8gnesX7YzdXyY-38">
          <mxGeometry relative="1" as="geometry">
            <mxPoint x="-410" y="100" as="targetPoint" />
          </mxGeometry>
        </mxCell>
        <mxCell id="Ks6QfVX8gnesX7YzdXyY-38" value="&lt;span style=&quot;font-size: 18px;&quot;&gt;--arch=cnasm&lt;br&gt;&lt;/span&gt;" style="rounded=1;whiteSpace=wrap;html=1;fontSize=12;glass=0;strokeWidth=1;shadow=0;fillColor=#d5e8d4;strokeColor=#82b366;" vertex="1" parent="WIyWlLk6GJQsqaUBKTNV-1">
          <mxGeometry x="-330" y="80" width="120" height="40" as="geometry" />
        </mxCell>
        <mxCell id="Ks6QfVX8gnesX7YzdXyY-48" style="edgeStyle=orthogonalEdgeStyle;rounded=0;orthogonalLoop=1;jettySize=auto;html=1;exitX=0.5;exitY=1;exitDx=0;exitDy=0;" edge="1" parent="WIyWlLk6GJQsqaUBKTNV-1" source="Ks6QfVX8gnesX7YzdXyY-41" target="Ks6QfVX8gnesX7YzdXyY-46">
          <mxGeometry relative="1" as="geometry" />
        </mxCell>
        <mxCell id="Ks6QfVX8gnesX7YzdXyY-41" value="&lt;span style=&quot;font-size: 18px;&quot;&gt;CNAsmDisasm(InputFile)&lt;/span&gt;" style="rounded=1;whiteSpace=wrap;html=1;fontSize=12;glass=0;strokeWidth=1;shadow=0;" vertex="1" parent="WIyWlLk6GJQsqaUBKTNV-1">
          <mxGeometry x="-522" y="245" width="223.5" height="50" as="geometry" />
        </mxCell>
        <mxCell id="Ks6QfVX8gnesX7YzdXyY-45" style="edgeStyle=orthogonalEdgeStyle;rounded=0;orthogonalLoop=1;jettySize=auto;html=1;exitX=0;exitY=0.5;exitDx=0;exitDy=0;" edge="1" parent="WIyWlLk6GJQsqaUBKTNV-1" source="Ks6QfVX8gnesX7YzdXyY-43">
          <mxGeometry relative="1" as="geometry">
            <mxPoint x="-410" y="210" as="targetPoint" />
          </mxGeometry>
        </mxCell>
        <mxCell id="Ks6QfVX8gnesX7YzdXyY-43" value="&lt;span style=&quot;font-size: 18px;&quot;&gt;--disasmble&lt;br&gt;&lt;/span&gt;" style="rounded=1;whiteSpace=wrap;html=1;fontSize=12;glass=0;strokeWidth=1;shadow=0;fillColor=#d5e8d4;strokeColor=#82b366;" vertex="1" parent="WIyWlLk6GJQsqaUBKTNV-1">
          <mxGeometry x="-324.69" y="190" width="109.37" height="40" as="geometry" />
        </mxCell>
        <mxCell id="Ks6QfVX8gnesX7YzdXyY-49" style="edgeStyle=orthogonalEdgeStyle;rounded=0;orthogonalLoop=1;jettySize=auto;html=1;exitX=0.5;exitY=1;exitDx=0;exitDy=0;entryX=0.5;entryY=0;entryDx=0;entryDy=0;" edge="1" parent="WIyWlLk6GJQsqaUBKTNV-1" source="Ks6QfVX8gnesX7YzdXyY-46" target="Ks6QfVX8gnesX7YzdXyY-47">
          <mxGeometry relative="1" as="geometry" />
        </mxCell>
        <mxCell id="Ks6QfVX8gnesX7YzdXyY-46" value="&lt;span style=&quot;font-size: 18px;&quot;&gt;调用cnbin 接口获取 text section 的 binary，size， addr&lt;/span&gt;" style="rounded=1;whiteSpace=wrap;html=1;fontSize=12;glass=0;strokeWidth=1;shadow=0;" vertex="1" parent="WIyWlLk6GJQsqaUBKTNV-1">
          <mxGeometry x="-536.24" y="330" width="252" height="90" as="geometry" />
        </mxCell>
        <mxCell id="Ks6QfVX8gnesX7YzdXyY-51" style="edgeStyle=orthogonalEdgeStyle;rounded=0;orthogonalLoop=1;jettySize=auto;html=1;exitX=0.5;exitY=1;exitDx=0;exitDy=0;entryX=0.5;entryY=0;entryDx=0;entryDy=0;" edge="1" parent="WIyWlLk6GJQsqaUBKTNV-1" source="Ks6QfVX8gnesX7YzdXyY-47" target="Ks6QfVX8gnesX7YzdXyY-50">
          <mxGeometry relative="1" as="geometry" />
        </mxCell>
        <mxCell id="Ks6QfVX8gnesX7YzdXyY-47" value="&lt;span style=&quot;font-size: 18px;&quot;&gt;调用 cnbin 反汇编接口&lt;/span&gt;" style="rounded=1;whiteSpace=wrap;html=1;fontSize=12;glass=0;strokeWidth=1;shadow=0;" vertex="1" parent="WIyWlLk6GJQsqaUBKTNV-1">
          <mxGeometry x="-506.92" y="460" width="193.36" height="50" as="geometry" />
        </mxCell>
        <mxCell id="Ks6QfVX8gnesX7YzdXyY-50" value="&lt;span style=&quot;font-size: 18px;&quot;&gt;输出反汇编结果&lt;/span&gt;" style="rounded=1;whiteSpace=wrap;html=1;fontSize=12;glass=0;strokeWidth=1;shadow=0;" vertex="1" parent="WIyWlLk6GJQsqaUBKTNV-1">
          <mxGeometry x="-483.7" y="540" width="146.92" height="50" as="geometry" />
        </mxCell>
        <mxCell id="Ks6QfVX8gnesX7YzdXyY-53" style="edgeStyle=orthogonalEdgeStyle;rounded=0;orthogonalLoop=1;jettySize=auto;html=1;exitX=1;exitY=0.5;exitDx=0;exitDy=0;" edge="1" parent="WIyWlLk6GJQsqaUBKTNV-1" source="Ks6QfVX8gnesX7YzdXyY-52">
          <mxGeometry relative="1" as="geometry">
            <mxPoint x="-410" y="220" as="targetPoint" />
          </mxGeometry>
        </mxCell>
        <mxCell id="Ks6QfVX8gnesX7YzdXyY-52" value="&lt;span style=&quot;font-size: 18px;&quot;&gt;cnbin&lt;br&gt;&lt;/span&gt;" style="rounded=1;whiteSpace=wrap;html=1;fontSize=12;glass=0;strokeWidth=1;shadow=0;fillColor=#d5e8d4;strokeColor=#82b366;" vertex="1" parent="WIyWlLk6GJQsqaUBKTNV-1">
          <mxGeometry x="-553.7" y="200" width="70" height="40" as="geometry" />
        </mxCell>
      </root>
    </mxGraphModel>
  </diagram>
</mxfile>
